<svg xmlns="http://www.w3.org/2000/svg" viewBox="0 0 45 45"><style>.sl{animation:mSl 4s ease-in-out infinite;transform-origin:22.5px 41px}@keyframes mSl{0%,100%{transform:scale(1,1)}50%{transform:scale(1.02,0.98)}}.zz{animation:mZz 3s ease-in-out infinite}@keyframes mZz{0%{opacity:0;transform:translate(0,2px)}40%{opacity:1}100%{opacity:0;transform:translate(2px,-5px)}}</style><ellipse cx="22.5" cy="40.5" rx="11" ry="2" fill="rgba(0,0,0,0.16)"/><g class="sl"><path d="M16 13 L13 5 L21 11 Z" fill="#141414"/><path d="M29 13 L32 5 L24 11 Z" fill="#141414"/><path d="M16.6 12 L14.8 7.4 L19.6 10.8 Z" fill="#3a3a3a"/><path d="M28.4 12 L30.2 7.4 L25.4 10.8 Z" fill="#3a3a3a"/><circle cx="22.5" cy="19" r="10.4" fill="#141414"/><ellipse cx="22.5" cy="33" rx="9.6" ry="7.6" fill="#141414"/><ellipse cx="22.5" cy="33.5" rx="4.4" ry="5.4" fill="#fafafa"/><ellipse cx="22.5" cy="21" rx="5" ry="3.8" fill="#fafafa"/><path d="M21.1 19.6 L23.9 19.6 L22.5 21.2 Z" fill="#4a4a4a"/><path d="M20.6 21.8 H24.4" stroke="#4a4a4a" stroke-width="0.8" stroke-linecap="round"/><ellipse cx="18" cy="39.4" rx="2.8" ry="2" fill="#fafafa"/><ellipse cx="27" cy="39.4" rx="2.8" ry="2" fill="#fafafa"/><g><path d="M16.2 17 Q18.6 19 21 17" stroke="#1a1a1a" stroke-width="1" fill="none" stroke-linecap="round"/><path d="M24 17 Q26.4 19 28.8 17" stroke="#1a1a1a" stroke-width="1" fill="none" stroke-linecap="round"/></g></g><text x="32" y="13" font-family="sans-serif" font-size="6" fill="#7a8aa0" class="zz">z</text></svg>