<svg xmlns="http://www.w3.org/2000/svg" viewBox="0 0 45 45"><style>.sway{animation:dfSway 1.4s ease-in-out infinite;transform-origin:22.5px 40px}@keyframes dfSway{0%,100%{transform:rotate(-2deg)}50%{transform:rotate(2deg)}}.brm{animation:dfBrm 1.4s ease-in-out infinite;transform-origin:30px 30px}@keyframes dfBrm{0%,100%{transform:rotate(-8deg)}50%{transform:rotate(8deg)}}</style><ellipse cx="22.5" cy="42" rx="11.5" ry="2.1" fill="rgba(0,0,0,0.16)"/><g class="sway"><path d="M30.5 33 C36 31.5 39 33.5 41.5 30.5 C40.8 29.8 41 31 41.6 31.2 C42 33.6 41 36 38.8 37 C36 38.2 32 37.5 30 35.2 Z" fill="#141414"/><path d="M16 12 L12.5 3.5 L21 10 Z" fill="#141414"/><path d="M29 12 L32.5 3.5 L24 10 Z" fill="#141414"/><path d="M16.6 11 L14.6 6 L19.4 9.8 Z" fill="#3a3a3a"/><path d="M28.4 11 L30.4 6 L25.6 9.8 Z" fill="#3a3a3a"/><path d="M14.5 15 L10.5 13.5 L14.5 17 Z" fill="#141414"/><path d="M30.5 15 L34.5 13.5 L30.5 17 Z" fill="#141414"/><circle cx="22.5" cy="14" r="8.6" fill="#141414"/><path d="M14.4 18 C12.8 22 13.4 30 14 36 C14.3 40 18 42 22.5 42 C27 42 30.7 40 31 36 C31.6 30 32.2 22 30.6 18 C28 16.4 17 16.4 14.4 18 Z" fill="#141414"/><path d="M22.5 17 C20.2 19 20.8 21 19.6 23 C20.8 23.6 19.2 25 20 26 C18.6 26.6 20 28 19 29 C20.4 29.4 18.8 31 19.4 32.4 C18.2 33.4 19.8 34.6 19.2 36 C20.6 38 24.4 38 26 36 C25.2 34.6 26.6 33.6 25.6 32.4 C26.4 31 24.8 29.6 26 29 C25 28 26.4 26.6 25 26 C25.8 25 24.4 23.8 25.4 23 C24.4 21 24.8 19 22.5 17 Z" fill="#fafafa"/><ellipse cx="22.5" cy="16" rx="4.6" ry="3.4" fill="#fafafa"/><path d="M21.3 14.7 L23.7 14.7 L22.5 16.2 Z" fill="#4a4a4a"/><path d="M22.5 16.2 Q21.2 17.8 19.9 16.6" stroke="#4a4a4a" stroke-width="0.7" fill="none" stroke-linecap="round"/><path d="M22.5 16.2 Q23.8 17.8 25.1 16.6" stroke="#4a4a4a" stroke-width="0.7" fill="none" stroke-linecap="round"/><g style="transform-origin:22.5px 31px"><ellipse cx="20.6" cy="31.4" rx="2.5" ry="2" fill="#fafafa"/><ellipse cx="24.4" cy="31.4" rx="2.5" ry="2" fill="#fafafa"/></g><ellipse cx="18.4" cy="41" rx="3.1" ry="2.3" fill="#fafafa"/><ellipse cx="26.6" cy="41" rx="3.1" ry="2.3" fill="#fafafa"/><path d="M16.8 40.4 V42.6 M18.4 40.2 V42.8 M20 40.4 V42.6" stroke="#cfcfcf" stroke-width="0.4"/><path d="M25 40.4 V42.6 M26.6 40.2 V42.8 M28.2 40.4 V42.6" stroke="#cfcfcf" stroke-width="0.4"/><g style="transform-origin:center;transform-box:fill-box"><ellipse cx="19" cy="12.6" rx="2.3" ry="2.7" fill="#fafafa"/><ellipse cx="26" cy="12.6" rx="2.3" ry="2.7" fill="#fafafa"/><circle cx="19.4" cy="12.9" r="1.15" fill="#1a1a1a"/><circle cx="25.6" cy="12.9" r="1.15" fill="#1a1a1a"/><circle cx="19.8" cy="12.4" r="0.4" fill="#fff"/><circle cx="26" cy="12.4" r="0.4" fill="#fff"/></g></g><g class="brm"><rect x="29.4" y="24" width="1.2" height="12" rx="0.6" fill="#8a5a2a"/><path d="M27 36 L33 36 L34.4 41 L25.6 41 Z" fill="#d8b24a"/><path d="M26.4 41 V43 M28 41 V43 M29.6 41 V43 M31.2 41 V43 M32.8 41 V43 M34.4 41 V43" stroke="#b8922a" stroke-width="0.4"/></g></svg>