<svg xmlns="http://www.w3.org/2000/svg" viewBox="0 0 45 45"><style>.hb{animation:mHb .7s ease-in-out infinite;transform-origin:22.5px 41px}@keyframes mHb{0%,100%{transform:translateY(0)}40%{transform:translateY(-2px)}}.sp{animation:mSp 1s ease-in-out infinite}@keyframes mSp{0%,100%{opacity:.3}50%{opacity:1}}</style><ellipse cx="22.5" cy="40.5" rx="11" ry="2" fill="rgba(0,0,0,0.16)"/><g class="hb"><path d="M16 13 L13 5 L21 11 Z" fill="#141414"/><path d="M29 13 L32 5 L24 11 Z" fill="#141414"/><path d="M16.6 12 L14.8 7.4 L19.6 10.8 Z" fill="#3a3a3a"/><path d="M28.4 12 L30.2 7.4 L25.4 10.8 Z" fill="#3a3a3a"/><circle cx="22.5" cy="19" r="10.4" fill="#141414"/><ellipse cx="22.5" cy="33" rx="9.6" ry="7.6" fill="#141414"/><ellipse cx="22.5" cy="33.5" rx="4.4" ry="5.4" fill="#fafafa"/><ellipse cx="22.5" cy="21" rx="5" ry="3.8" fill="#fafafa"/><path d="M21.1 19.6 L23.9 19.6 L22.5 21.2 Z" fill="#4a4a4a"/><path d="M19.4 21.4 Q22.5 24.6 25.6 21.4" stroke="#4a4a4a" stroke-width="0.9" fill="none" stroke-linecap="round"/><ellipse cx="18" cy="39.4" rx="2.8" ry="2" fill="#fafafa"/><ellipse cx="27" cy="39.4" rx="2.8" ry="2" fill="#fafafa"/><g><path d="M16.2 17.8 Q18.6 14.8 21 17.8" stroke="#1a1a1a" stroke-width="1.1" fill="none" stroke-linecap="round"/><path d="M24 17.8 Q26.4 14.8 28.8 17.8" stroke="#1a1a1a" stroke-width="1.1" fill="none" stroke-linecap="round"/></g></g><g class="sp"><path d="M34 14 l0.6 1.8 1.8 0.6 -1.8 0.6 -0.6 1.8 -0.6 -1.8 -1.8 -0.6 1.8 -0.6 Z" fill="#ffd84a"/></g></svg>