<svg xmlns="http://www.w3.org/2000/svg" viewBox="0 0 45 45"><style>.mw{animation:mMw .35s ease-in-out infinite;transform-origin:22.5px 40px}@keyframes mMw{0%,100%{transform:translateY(0)}50%{transform:translateY(0.6px)}}</style><ellipse cx="22.5" cy="40.5" rx="11" ry="2" fill="rgba(0,0,0,0.16)"/><g class="mw"><path d="M16 13 L13 5 L21 11 Z" fill="#141414"/><path d="M29 13 L32 5 L24 11 Z" fill="#141414"/><path d="M16.6 12 L14.8 7.4 L19.6 10.8 Z" fill="#3a3a3a"/><path d="M28.4 12 L30.2 7.4 L25.4 10.8 Z" fill="#3a3a3a"/><circle cx="22.5" cy="19" r="10.4" fill="#141414"/><ellipse cx="22.5" cy="33" rx="9.6" ry="7.6" fill="#141414"/><ellipse cx="22.5" cy="33.5" rx="4.4" ry="5.4" fill="#fafafa"/><ellipse cx="22.5" cy="21" rx="5" ry="3.8" fill="#fafafa"/><path d="M21.1 19.6 L23.9 19.6 L22.5 21.2 Z" fill="#4a4a4a"/><path d="M20.6 21.8 H24.4" stroke="#4a4a4a" stroke-width="0.8" stroke-linecap="round"/><ellipse cx="18" cy="39.4" rx="2.8" ry="2" fill="#fafafa"/><ellipse cx="27" cy="39.4" rx="2.8" ry="2" fill="#fafafa"/><g style="transform-origin:center;transform-box:fill-box"><ellipse cx="18.6" cy="17" rx="2.6" ry="3" fill="#fafafa"/><ellipse cx="26.4" cy="17" rx="2.6" ry="3" fill="#fafafa"/><circle cx="19" cy="17.3" r="1.3" fill="#1a1a1a"/><circle cx="26" cy="17.3" r="1.3" fill="#1a1a1a"/><circle cx="19.5" cy="16.4" r="0.45" fill="#fff"/><circle cx="26.5" cy="16.4" r="0.45" fill="#fff"/></g></g><rect x="17" y="36" width="11" height="1.8" rx="0.8" fill="#2b3a4a"/></svg>