<svg xmlns="http://www.w3.org/2000/svg" viewBox="0 0 45 45"><style>.wig{animation:dfWig 1.2s ease-in-out infinite;transform-origin:22.5px 40px}@keyframes dfWig{0%,100%{transform:rotate(0)}25%{transform:rotate(-3deg)}75%{transform:rotate(3deg)}}.bell{animation:dfBell 1.2s ease-in-out infinite;transform-origin:33px 7px}@keyframes dfBell{0%,100%{transform:rotate(-10deg)}50%{transform:rotate(10deg)}}</style><ellipse cx="22.5" cy="42" rx="11.5" ry="2.1" fill="rgba(0,0,0,0.16)"/><g class="wig"><path d="M30.5 33 C36 31.5 39 33.5 41.5 30.5 C40.8 29.8 41 31 41.6 31.2 C42 33.6 41 36 38.8 37 C36 38.2 32 37.5 30 35.2 Z" fill="#141414"/><path d="M16 12 L12.5 3.5 L21 10 Z" fill="#141414"/><path d="M29 12 L32.5 3.5 L24 10 Z" fill="#141414"/><path d="M16.6 11 L14.6 6 L19.4 9.8 Z" fill="#3a3a3a"/><path d="M28.4 11 L30.4 6 L25.6 9.8 Z" fill="#3a3a3a"/><path d="M14.5 15 L10.5 13.5 L14.5 17 Z" fill="#141414"/><path d="M30.5 15 L34.5 13.5 L30.5 17 Z" fill="#141414"/><circle cx="22.5" cy="14" r="8.6" fill="#141414"/><path d="M14.4 18 C12.8 22 13.4 30 14 36 C14.3 40 18 42 22.5 42 C27 42 30.7 40 31 36 C31.6 30 32.2 22 30.6 18 C28 16.4 17 16.4 14.4 18 Z" fill="#141414"/><path d="M22.5 17 C20.2 19 20.8 21 19.6 23 C20.8 23.6 19.2 25 20 26 C18.6 26.6 20 28 19 29 C20.4 29.4 18.8 31 19.4 32.4 C18.2 33.4 19.8 34.6 19.2 36 C20.6 38 24.4 38 26 36 C25.2 34.6 26.6 33.6 25.6 32.4 C26.4 31 24.8 29.6 26 29 C25 28 26.4 26.6 25 26 C25.8 25 24.4 23.8 25.4 23 C24.4 21 24.8 19 22.5 17 Z" fill="#fafafa"/><ellipse cx="22.5" cy="16" rx="4.6" ry="3.4" fill="#fafafa"/><path d="M21.3 14.7 L23.7 14.7 L22.5 16.2 Z" fill="#4a4a4a"/><ellipse cx="22.5" cy="16.8" rx="1" ry="1.2" fill="#5a3a3a"/><g style="transform-origin:22.5px 31px"><ellipse cx="20.6" cy="31.4" rx="2.5" ry="2" fill="#fafafa"/><ellipse cx="24.4" cy="31.4" rx="2.5" ry="2" fill="#fafafa"/></g><ellipse cx="18.4" cy="41" rx="3.1" ry="2.3" fill="#fafafa"/><ellipse cx="26.6" cy="41" rx="3.1" ry="2.3" fill="#fafafa"/><path d="M16.8 40.4 V42.6 M18.4 40.2 V42.8 M20 40.4 V42.6" stroke="#cfcfcf" stroke-width="0.4"/><path d="M25 40.4 V42.6 M26.6 40.2 V42.8 M28.2 40.4 V42.6" stroke="#cfcfcf" stroke-width="0.4"/><g><ellipse cx="19" cy="12.6" rx="2.6" ry="3" fill="#fafafa"/><ellipse cx="26" cy="12.6" rx="2.6" ry="3" fill="#fafafa"/><circle cx="19" cy="12.7" r="1.5" fill="#1a1a1a"/><circle cx="26" cy="12.7" r="1.5" fill="#1a1a1a"/><circle cx="19.6" cy="12.1" r="0.45" fill="#fff"/><circle cx="26.6" cy="12.1" r="0.45" fill="#fff"/></g></g><g class="bell"><path d="M30.5 12 C30.5 9 31.3 7 33 6.4 C34.7 7 35.5 9 35.5 12 Z" fill="#ffce4a" stroke="#c79a2a" stroke-width="0.4"/><rect x="30" y="12" width="6" height="1.2" rx="0.6" fill="#c79a2a"/><circle cx="33" cy="14" r="0.8" fill="#c79a2a"/><circle cx="33" cy="5.6" r="0.7" fill="#c79a2a"/></g></svg>